 http://desibbrg.org/images/66952052392581364616.gif
 
http://desibbrg.org/images/61616201142242754850.jpg
 
http://desibbrg.org/images/47545220302665047391.jpg

Info - 
General
Format : MPEG-PS
File size : 848 MiB
Duration : 2h 10mn
Overall bit rate : 909 Kbps
Video #224
ID : 224 (0xE0)
Format : MPEG Video
Format version : Version 2
Format profile : Main@Main
Format settings, BVOP : No
Format settings, Matrix : Default
Duration : 2h 10mn
Bit rate mode : Variable
Bit rate : 795 Kbps
Width : 352 pixels
Height : 288 pixels
Display aspect ratio : 4:3
Frame rate : 25.000 fps
Standard : PAL
Color space : YUV
Chroma subsampling : 4:2:0
Bit depth : 8 bits
Scan type : Progressive
Compression mode : Lossy
Bits/(Pixel*Frame) : 0.314
Stream size : 742 MiB (87%)

Audio #192
ID : 192 (0xC0)
Format : MPEG Audio
Format version : Version 1
Format profile : Layer 2
Duration : 2h 10mn
Bit rate mode : Constant
Bit rate : 96.0 Kbps
Channel(s) : 2 channels
Sampling rate : 48.0 KHz
Compression mode : Lossy
Stream size : 89.6 MiB (11%)

Ripper : Deshi Digital Dhoom

Seeding 24x7... Extreme Seeding...


Enjoy!
